<?xml version="1.0" standalone="no"?>
<!DOCTYPE svg PUBLIC "-//W3C//DTD SVG 20010904//EN"
 "http://www.w3.org/TR/2001/REC-SVG-20010904/DTD/svg10.dtd">
<svg version="1.0" xmlns="http://www.w3.org/2000/svg"
 width="408.000000pt" height="408.000000pt" viewBox="0 0 408.000000 408.000000"
 preserveAspectRatio="xMidYMid meet">
<metadata>
Created by potrace 1.14, written by Peter Selinger 2001-2017
</metadata>
<g transform="translate(0.000000,408.000000) scale(0.100000,-0.100000)"
fill="#000000" stroke="none">
<path d="M248 4065 c-107 -27 -192 -106 -226 -210 -19 -59 -19 -95 -18 -1835
l1 -1775 33 -67 c36 -73 88 -123 163 -157 44 -20 61 -21 1845 -21 l1800 0 59
30 c70 36 120 87 152 156 l23 51 -2 1809 c-3 1747 -4 1810 -22 1844 -38 72
-86 119 -154 152 l-67 33 -1771 1 c-1290 0 -1783 -2 -1816 -11z"/>
</g>
</svg>
